<?xml version="1.0" encoding="utf-8"?>
<!-- Generator: Adobe Illustrator 22.1.0, SVG Export Plug-In . SVG Version: 6.00 Build 0)  -->
<svg version="1.1" id="Layer_1" xmlns="http://www.w3.org/2000/svg" xmlns:xlink="http://www.w3.org/1999/xlink" x="0px" y="0px"
	 viewBox="0 0 792 612" style="enable-background:new 0 0 792 612;" xml:space="preserve">
<style type="text/css">
	.st0{fill:#FFFFFF;}
</style>
<polygon class="st0" points="394.4,307.2 389.8,317.1 385.6,317.1 385.1,307.2 385,307.2 382.9,317.1 378.5,317.1 381.6,302.4 
	388.8,302.4 388.9,310.8 389.1,310.8 392.7,302.4 400.1,302.4 397.1,317.1 392.5,317.1 394.6,307.2 "/>
<path class="st0" d="M413.3,311.4l-0.3-5.6h-0.2l-2.7,5.6H413.3z M410.4,302.4h6.7l1,14.7h-4.8l-0.1-2.6H409l-1.2,2.6h-4.5
	L410.4,302.4z"/>
<polygon class="st0" points="447.4,305.8 444.1,305.8 444.9,302.4 456.1,302.4 455.4,305.8 452.2,305.8 449.8,317.1 445,317.1 "/>
<polygon class="st0" points="475.2,302.4 481.8,302.4 483.2,311.1 483.3,311.1 485.2,302.4 489.7,302.4 486.7,317.1 480.2,317.1 
	478.9,308.1 478.8,308.1 476.9,317.1 472.2,317.1 "/>
<path class="st0" d="M432.5,308.5c1.4,0,1.9-0.7,1.9-1.6c0-0.7-0.4-1.1-1.4-1.1h-1.2l-0.6,2.7H432.5z M427.7,302.4h7.1
	c3.5,0,4.7,1.9,4.7,3.7c0,2.8-2.3,3.6-3.5,3.8v0.2c1.4,0.2,2,1.2,2,2.4c0,1-0.2,2-0.2,3.2c0,0.5,0.1,1.1,0.1,1.3h-5.1
	c0-0.1-0.1-0.6-0.1-0.9c0-1.2,0.3-2.1,0.3-3.4c0-0.6-0.2-1.2-1.2-1.2h-1.2l-1.1,5.5h-4.8L427.7,302.4z"/>
<polygon class="st0" points="462.2,302.4 467,302.4 463.9,317.1 459.1,317.1 "/>
<polygon class="st0" points="219,302.4 223.8,302.4 221.5,313.6 226.2,313.6 225.5,317.1 215.9,317.1 "/>
<polygon class="st0" points="274.6,302.4 279.4,302.4 278.1,308.7 278.2,308.7 282.4,302.4 287.6,302.4 282.2,309.3 284.9,317.1 
	279.8,317.1 277.8,310.5 277.7,310.5 276.3,317.1 271.5,317.1 "/>
<polygon class="st0" points="299.5,311.5 296.6,311.5 295.5,317.1 290.7,317.1 293.7,302.4 298.5,302.4 297.4,307.9 300.2,307.9 
	301.4,302.4 306.2,302.4 303.1,317.1 298.3,317.1 "/>
<polygon class="st0" points="333.3,302.4 343.4,302.4 342.6,305.8 337.3,305.8 336.9,308 341.7,308 341,311.5 336.2,311.5 
	335.7,313.6 341.3,313.6 340.5,317.1 330.2,317.1 "/>
<polygon class="st0" points="314.9,302.4 324.9,302.4 324.2,305.8 318.9,305.8 318.5,308 323.3,308 322.6,311.5 317.8,311.5 
	317.3,313.6 322.9,313.6 322.1,317.1 311.8,317.1 "/>
<path class="st0" d="M238.5,313.6c2.1,0,3-5.3,3-6.5c0-0.7-0.3-1.3-1.2-1.3c-2.2,0-3,5.3-3,6.5C237.3,313.3,237.9,313.6,238.5,313.6
	 M240.8,302.2c3.6,0,5.5,2,5.5,5.2c0,3.9-2,9.9-8.3,9.9c-3.5,0-5.5-1.9-5.5-5.2C232.5,307.8,234.7,302.2,240.8,302.2"/>
<path class="st0" d="M355,313.6h1.4c1.9,0,3.3-2.6,3.3-5.7c0-1.1-0.5-2-2.2-2h-0.9L355,313.6z M352.5,302.4h5.4
	c4.6,0,6.6,2.6,6.6,5.5c0,5.5-3.4,9.2-9.2,9.2h-5.9L352.5,302.4z"/>
<path class="st0" d="M264.6,311.5c-0.8,4-3.7,5.7-7.1,5.7c-3.6,0-5.5-2-5.5-5.2c0-3.7,1.9-9.9,8.3-9.9c2.9,0,5.3,1.1,5.2,4.2
	c0,0.5-0.1,1.2-0.1,1.5h-4.5c0-0.1,0.1-0.5,0.1-0.9c0-0.8-0.6-1.1-1.2-1.1c-2.2,0-3,5.3-3,6.5c0,0.9,0.5,1.3,1.2,1.3
	c0.7,0,1.4-0.6,2-2H264.6z"/>
<path class="st0" d="M530.2,338.9C530,339.1,530,339.3,530.2,338.9"/>
<path class="st0" d="M463.7,349.7C463.3,349.9,463.3,349.9,463.7,349.7"/>
<path class="st0" d="M505,312.7C504.6,313.1,504.6,313.1,505,312.7"/>
<path class="st0" d="M575.4,292.8h-32.6c4.3-16.1,8.2-29.8,8.2-29.8s-14.7,15.7-27.7,29.8l-129.4,0.3c0,0,0.1,0,0.1,0l-0.1,0
	l126.1,3.2c-9.7,10.3-14.8,16.2-15,16.4l0.1,0c0.4-0.4,17.9-16.3,17.9-16.3l15.4,0.4l-2.3,12.1L464,349.5c-0.2,0.1-0.3,0.2-0.3,0.2
	c0,0,57.1-30,71.5-37.3c0,0-5.1,26.4-5.1,26.5c0,0,0,0,0-0.1l0,0.1l0.1-0.3c0.5-1.7,3.5-12.1,7.6-27.5
	C556.7,301.6,575.4,292.8,575.4,292.8 M541.6,279.3l-2.6,13.5h-12.2L541.6,279.3z M541.7,296.8l14.9,0.4l-17.7,10
	C539.8,303.6,540.7,300.4,541.7,296.8"/>
</svg>
